<svg width="8" height="11" viewBox="0 0 8 11" fill="none" xmlns="http://www.w3.org/2000/svg">
<path d="M3.71974 10.2945C3.71974 10.2945 0.393921 5.9567 0.393921 4.11799C0.393921 3.68124 0.479946 3.24876 0.647084 2.84526C0.814222 2.44175 1.0592 2.07512 1.36803 1.76628C1.67686 1.45745 2.0435 1.21248 2.447 1.04534C2.85051 0.8782 3.28299 0.792175 3.71974 0.792175C4.15649 0.792175 4.58897 0.8782 4.99247 1.04534C5.39598 1.21248 5.76262 1.45745 6.07145 1.76628C6.38028 2.07512 6.62526 2.44175 6.79239 2.84526C6.95953 3.24876 7.04556 3.68124 7.04556 4.11799C7.04556 5.9567 3.71974 10.2945 3.71974 10.2945ZM3.71974 5.06823C3.97176 5.06823 4.21345 4.96811 4.39166 4.78991C4.56986 4.61171 4.66997 4.37001 4.66997 4.11799C4.66997 3.86598 4.56986 3.62428 4.39166 3.44608C4.21345 3.26787 3.97176 3.16776 3.71974 3.16776C3.46772 3.16776 3.22603 3.26787 3.04782 3.44608C2.86962 3.62428 2.76951 3.86598 2.76951 4.11799C2.76951 4.37001 2.86962 4.61171 3.04782 4.78991C3.22603 4.96811 3.46772 5.06823 3.71974 5.06823Z" fill="#8A8A8A"/>
</svg>
