<svg width="25" height="25" viewBox="0 0 25 25" fill="none" xmlns="http://www.w3.org/2000/svg">
<path d="M15.6506 19.5433C15.6506 21.0633 14.4206 22.2933 12.9006 22.2933C11.3806 22.2933 10.1506 21.0633 10.1506 19.5433C10.1506 18.0233 11.3806 16.7933 12.9006 16.7933C14.4206 16.7933 15.6506 18.0233 15.6506 19.5433ZM11.6506 19.5433C11.6506 20.2333 12.2106 20.7933 12.9006 20.7933C13.5906 20.7933 14.1506 20.2333 14.1506 19.5433C14.1506 18.8533 13.5906 18.2933 12.9006 18.2933C12.2106 18.2933 11.6506 18.8533 11.6506 19.5433Z" fill="#292D32"/>
<path d="M15.6506 5.54327C15.6506 7.06327 14.4206 8.29327 12.9006 8.29327C11.3806 8.29327 10.1506 7.06327 10.1506 5.54327C10.1506 4.02327 11.3806 2.79327 12.9006 2.79327C14.4206 2.79327 15.6506 4.02327 15.6506 5.54327ZM11.6506 5.54327C11.6506 6.23327 12.2106 6.79327 12.9006 6.79327C13.5906 6.79327 14.1506 6.23327 14.1506 5.54327C14.1506 4.85327 13.5906 4.29327 12.9006 4.29327C12.2106 4.29327 11.6506 4.85327 11.6506 5.54327Z" fill="#292D32"/>
<path d="M15.6506 12.5433C15.6506 14.0633 14.4206 15.2933 12.9006 15.2933C11.3806 15.2933 10.1506 14.0633 10.1506 12.5433C10.1506 11.0233 11.3806 9.79327 12.9006 9.79327C14.4206 9.79327 15.6506 11.0233 15.6506 12.5433ZM11.6506 12.5433C11.6506 13.2333 12.2106 13.7933 12.9006 13.7933C13.5906 13.7933 14.1506 13.2333 14.1506 12.5433C14.1506 11.8533 13.5906 11.2933 12.9006 11.2933C12.2106 11.2933 11.6506 11.8533 11.6506 12.5433Z" fill="#292D32"/>
</svg>
